<!--SOURCE: https://pixabay.com/vectors/vintage-flourish-frame-divider-4243323/-->

<svg width="213" height="72" viewBox="0 0 213 72" fill="none" xmlns="http://www.w3.org/2000/svg">
<path d="M209.626 62.5048C207.602 61.61 207.087 62.3891 207.087 61.5266C207.087 60.0269 205.021 59.6828 203.98 59.304C203.332 59.0687 201.914 59.4016 201.101 59.9798C200.163 60.6479 200.554 60.0525 199.552 61.0227C197.204 63.2994 201.052 58.2115 198.357 53.0444C198.19 52.7243 198.052 52.3893 198.052 52.2999C198.048 51.8067 196.735 49.4408 196.062 48.7142C193.436 45.8807 190.818 42.4269 183.412 41.4607C180.879 41.1305 173.552 41.4786 169.504 42.6201C167.279 43.2475 163.913 43.919 156.099 48.2164C153.814 49.4733 154.411 48.7184 154.574 47.2255C154.596 47.0201 154.381 41.4752 152.775 41.4752C151.972 41.4752 152.381 41.9283 151.267 41.8416C150.017 41.7441 150.845 42.0715 149.229 44.4855C147.304 47.3566 147.912 46.6571 147.28 48.4699C147.11 48.2864 146.369 47.4309 146.118 47.4309C145.717 47.4309 143.581 49.8679 142.913 53.1812C142.073 57.3541 140.417 59.0281 140.845 57.9899C141.307 56.8715 141.574 55.6759 141.574 54.7301C141.574 54.1493 141.658 53.5863 141.76 53.4789C142.004 53.2241 142.136 52.4919 142.901 50.4086C145.022 44.6245 143.726 43.8766 148.797 40.8859C152.397 38.7623 151.522 37.9556 152.572 36.5317C154.603 33.7788 149.877 33.8917 146.99 36.6651C145.897 37.7155 145.347 38.1552 145.926 36.9069C147.489 33.5404 148.107 32.825 150.122 32.0543C151.414 31.5597 152.173 31.5167 153.726 31.8497C154.623 32.0419 155.031 32.2948 156.099 33.3204C158.793 35.9077 159.78 37.77 158.466 37.7852C157.296 37.7987 156.894 38.49 156.671 40.8689C156.512 42.5605 156.654 42.8495 157.869 43.3114C158.538 43.5661 158.717 43.4903 160.647 42.1367C162.234 41.024 162.419 40.4778 161.521 39.5511C160.803 38.81 160.427 37.9042 161.668 38.7784C162.387 39.2846 162.998 39.4622 164.255 39.5305C166.67 39.6624 173.597 42.1393 178.122 38.0447C179.168 37.098 179.362 36.8151 179.362 36.235C179.362 35.4328 178.968 35.2199 177.999 35.4982C177.067 35.7654 177.193 35.3221 176.121 35.3174C174.569 35.3096 175.56 34.0156 176.908 32.5415C177.496 31.8986 177.828 30.8511 177.565 30.4729C177.282 30.0677 176.657 29.969 175.798 30.1943C174.253 30.5995 173.533 30.7026 172.119 31.6646C171.467 32.1077 170.834 32.4372 170.711 32.3961C170.446 32.3081 169.922 30.8845 169.918 30.2408C169.913 29.527 169.472 28.7423 169.076 28.7423C167.561 28.7423 165.602 32.7054 165.602 35.7706C165.602 37.9174 165.442 38.1936 164.209 38.1737C163.676 38.1652 162.941 38.0494 162.574 37.9164C161.77 37.6247 159.647 35.7958 159.647 35.3948C159.647 34.9231 160.149 35.0698 160.776 35.7248C161.522 36.5034 162.572 36.5715 163.149 35.8788C163.362 35.6248 163.538 35.3186 163.542 35.1986C163.568 34.3642 165.176 32.9485 163.766 31.7615L163.161 31.2529C162.332 31.4754 159.441 32.1176 159.441 33.1999C159.441 34.3126 156.772 32.8805 156.772 32.1316C156.772 32.002 157.257 31.6816 157.85 31.4195C159.57 30.6595 160.172 30.0936 161.004 28.4573C161.763 26.961 161.77 26.9281 161.415 26.3866C161.007 25.7635 160.889 25.8477 159.133 25.9697C159.05 24.1832 159.171 24.1204 158.506 23.6845C157.993 23.3479 157.966 23.3564 157.214 24.0906C156.792 24.5029 156.292 24.8401 156.103 24.8401C155.203 24.8401 153.28 27.3976 153.28 28.5944C153.28 29.4437 152.143 30.2317 149.097 31.4936C147.831 32.0176 147.809 31.9951 147.673 30.0782C147.467 27.1517 146.009 24.5211 144.679 24.6754C144.158 24.7357 144.136 24.7958 143.97 26.586C143.276 34.0639 144.862 30.8134 144.59 36.8826C144.523 38.3831 144.347 39.8815 144.193 40.2585C143.924 40.9173 143.909 40.8725 143.661 38.6902C142.572 29.1019 136.804 23.5461 136.068 21.3569C135.824 20.6289 135.845 20.4393 136.306 19.2586C137.116 17.1854 137.128 17.0893 136.661 16.2988C136.11 15.3648 136.123 15.1631 136.777 14.4577C137.143 14.0626 140.4 9.51147 136.029 10.4715C132.657 11.2123 131.1 13.2317 131.1 16.8677C131.1 18.7251 131.078 18.7398 129.396 17.9707C126.461 16.6282 120.229 16.1822 116.954 17.8815C116.407 18.1653 111.158 20.0299 109.544 24.9212C109.257 25.7917 108.865 26.1084 109.548 23.9836C109.942 22.7584 110.256 22.2471 111.337 21.0688C114.986 17.0925 118.402 17.2591 118.121 11.7481C117.973 8.84055 116.79 6.98496 114.563 6.16837C112.467 5.39944 112.923 4.50092 111.585 3.51108C111.043 3.10963 109.042 2.45511 108.356 2.45511C107.844 2.45511 107.349 1.90232 107.163 1.12028C106.821 -0.311966 106.152 -0.373486 105.316 0.950615C104.479 2.2774 104.265 2.45511 103.504 2.45511C102.711 2.45511 101.336 3.29956 100.202 4.48289C99.7558 4.94884 99.2476 5.33062 99.0727 5.33107C98.1505 5.33345 94.3383 7.87664 94.8585 12.3617C94.9751 13.3652 95.1962 13.8617 96.1905 15.352C98.5436 18.8779 100.342 18.8718 102.031 21.4284C102.626 22.3282 103.581 24.5856 103.581 25.0901C103.581 25.1786 103.457 25.2511 103.306 25.2511C103.154 25.2511 102.926 24.9046 102.799 24.481C101.961 21.6843 98.8187 18.8149 95.4689 17.7875C93.6618 17.2332 89.8324 16.749 88.3837 16.8917C87.332 16.9952 85.3287 17.5148 84.7152 17.8429C84.1088 18.1672 83.6292 17.9722 83.0926 18.2436C81.0166 19.2935 80.5588 19.2181 80.956 17.8922C82.0648 14.1915 78.524 9.31633 75.9517 11.0017C75.3814 11.3754 75.2985 11.9313 75.7461 12.3791C76.118 12.7509 76.8688 14.6813 77.1329 15.3246C76.399 16.8762 75.7273 17.9789 76.277 19.4246C76.9077 21.0834 72.981 27.6048 72.981 28.1304C72.981 28.2127 72.7277 28.7307 72.4182 29.2812C71.0458 31.7233 69.2842 37.9581 69.2842 40.3726C69.2842 41.3341 68.9856 41.2375 68.7258 40.1916C66.647 31.8302 68.5965 36.9401 68.744 28.5187C68.7955 25.5838 68.7657 25.2447 68.4483 25.1439C67.8416 24.9514 66.6278 25.6998 65.9936 26.6576C64.2921 29.2264 65.9873 32.1481 63.7738 31.019C62.0266 30.1282 59.6975 29.7951 58.7509 28.0739C58.0216 26.7485 57.9372 26.6239 56.8594 25.2842C55.3696 23.4322 54.4082 23.3721 53.8277 25.0947C53.5532 25.9095 53.4868 25.9652 52.8677 25.9031C52.0676 25.8225 51.4171 26.3323 51.4171 27.0398C51.4171 28.125 53.9564 30.9753 55.3705 31.4772C55.875 31.6561 55.8174 32.1648 55.2257 32.7564C53.8094 34.1726 53.915 31.7957 52.1659 31.8612C50.556 31.922 51.1052 30.5848 49.3941 31.6279C48.7688 32.0091 48.7158 32.1167 48.8127 32.808C49.1967 35.5481 49.643 36.341 50.8004 36.341C51.4944 36.341 51.658 36.2519 51.9306 35.7249C52.2316 35.1426 53.0602 34.841 53.0602 35.3138C53.0602 35.7273 51.5706 37.1512 50.6941 37.5753L49.7918 38.012C49.4005 37.8169 47.9003 37.1245 47.7028 36.7465C47.2049 35.7958 46.7173 34.4932 46.5955 33.7886C46.1572 31.2567 44.1089 29.7691 43.6079 29.7691C41.9455 29.7691 42.9707 33.8714 41.1876 32.1706C40.4896 31.5044 37.7169 30.3852 36.765 30.3852C36.0832 30.3852 35.3983 30.8037 35.3983 31.2202C35.3983 31.3245 35.8142 31.8316 36.3225 32.3471C36.9959 33.0301 37.2466 33.4485 37.2466 33.8885C37.2466 34.4617 37.2021 34.4927 36.3739 34.4957C35.2059 34.5 31.9961 35.2637 34.0163 36.8044C34.7298 37.3487 38.852 39.2161 39.3396 39.2161C39.4987 39.2161 39.7268 39.3139 39.8463 39.4336C39.9657 39.5529 40.6542 39.7724 41.3762 39.921C44.1367 40.4892 46.3647 39.2243 48.6067 39.2115C50.4931 39.2009 53.7215 36.9082 51.5245 39.3476C50.4437 40.5478 50.5558 41.2206 51.9488 41.895C52.447 42.1361 52.8547 42.3977 52.8547 42.4762C52.8547 42.8017 54.0141 43.2806 54.5524 43.1777C55.5096 42.9947 55.9083 42.1793 55.9771 40.2646C56.0344 38.6749 56.0084 38.5545 55.5245 38.1744C55.0333 37.7886 54.754 37.7758 53.73 38.0935C51.5686 38.7643 55.6285 31.8429 60.4168 31.2756C63.1084 30.9569 65.8209 32.9626 66.3238 35.643C66.3959 36.027 66.4078 36.341 66.3503 36.341C66.3503 36.341 63.9153 35.1252 62.8365 34.9774C62.0409 34.8684 61.8564 34.9196 61.3985 35.3772C60.8965 35.8792 60.8865 35.9341 61.1717 36.6164C61.6661 37.8004 61.7294 39.1194 62.391 39.8323C63.3068 40.8192 62.736 40.7877 64.8428 42.3734C68.3881 45.042 68.6878 46.478 69.6781 49.6902C70.974 53.896 71.4701 54.7615 71.6239 56.4213C71.6896 57.1301 71.8889 57.9912 72.0665 58.3347C72.2442 58.6785 72.3593 59.0505 72.3224 59.1612C72.2449 59.3937 70.1522 55.8526 69.794 52.668C69.5667 50.6489 69.4007 49.9359 68.9476 49.0301C68.2068 47.5496 67.0169 47.1628 66.2404 48.1499C65.7202 48.8112 65.6586 48.7983 65.5077 47.9959C65.2653 46.708 62.6531 41.9948 61.911 41.5066C60.9161 40.8518 61.2878 42.3331 60.4235 41.8704C59.7758 41.5238 59.2089 41.8613 58.7689 42.8562C57.6655 45.3505 59.4965 50.8215 57.3728 48.5608C56.6039 47.7425 55.3364 47.2246 54.3592 46.7232C52.3711 45.7031 50.318 44.8056 48.2367 43.994C43.3496 42.0882 38.047 40.4297 32.7543 40.4075C26.9009 40.383 20.6987 42.7518 17.0003 47.4523C15.3287 49.5771 14.2142 52.1522 13.602 54.7743C13.22 56.4102 12.906 58.3119 13.3352 59.9725C13.405 60.2426 13.494 60.5109 13.64 60.7503C15.2356 63.3676 11.0509 59.137 10.3596 59.137C10.1552 59.137 9.75301 59.3219 9.46581 59.5477C8.47568 60.3271 7.09989 59.5151 5.51228 61.0083C4.03952 62.3924 2.8462 61.8424 1.39057 63.7577C0.162996 65.3728 -0.302949 67.5865 0.285441 69.0072C0.759877 70.1527 1.46416 70.7888 2.71095 70.8592C3.12297 70.8825 5.88289 70.7298 5.10145 69.9475C4.75706 69.6026 4.20039 69.5935 3.88758 69.1977C3.51786 68.7299 3.25614 67.855 3.45589 67.2698C3.23067 67.9292 4.18982 69.2015 4.86863 69.2015C5.48964 69.2015 6.79214 67.7607 7.05565 66.7824C7.38917 65.5438 8.08973 65.226 10.2406 65.339C12.6063 65.4632 14.9226 66.7862 16.6326 68.3534C19.7157 71.1792 24.3546 71.7167 28.1841 70.1766C30.1423 69.389 32.639 67.8407 33.7757 66.0017C34.9726 64.0649 35.1607 60.9265 34.2029 58.8676C32.5586 55.3324 27.9261 53.8993 25.2566 56.0996C24.2913 56.8953 23.0865 58.7365 23.0865 59.416C23.0865 60.0655 22.8908 60.1041 22.4153 59.5488C21.488 58.467 19.9475 60.4184 21.4673 56.4103C22.7917 52.9175 26.2467 50.2108 31.0258 50.5723C33.2688 50.742 34.3069 51.319 35.0919 52.8323C35.736 54.0748 36.0524 54.2245 36.7683 53.6261C37.8049 52.7598 38.055 50.5148 34.7125 48.0482C36.9368 48.0632 43.823 49.4557 44.4442 50.2042C44.6133 50.4077 44.6173 50.6009 44.4589 50.8969C44.1635 51.4488 44.1814 52.2701 44.4962 52.604C45.3855 53.5467 45.4072 54.2093 44.5492 54.2093C43.0183 54.2093 41.7966 55.765 38.8479 58.6335C37.0437 60.3887 35.8489 62.8379 36.3899 65.3889C36.6003 66.3803 37.0559 67.3155 37.699 68.0983C38.1411 68.6363 38.6954 69.0573 39.2369 69.4884C39.7074 69.863 40.1646 70.5003 40.7323 70.7022C41.0597 70.8189 41.4147 70.8351 41.7617 70.8163C42.4274 70.7801 44.007 70.6547 43.865 69.6543C43.8428 69.5098 43.9985 69.2523 44.3407 68.7486C46.137 66.1048 41.1587 68.4714 42.8019 66.3821C43.3009 65.748 43.3417 64.5018 42.8923 63.6325C42.3488 62.5811 42.5649 62.0105 43.8288 61.1615C44.8766 60.4577 46.7936 59.7755 47.0376 60.0195C47.26 60.2419 46.2783 61.808 45.9165 61.808C45.448 61.808 45.1103 62.7036 44.3384 63.9644C43.7213 64.973 43.6989 65.5289 44.2555 66.0324C44.6627 66.401 44.7095 66.4022 45.2989 66.0642C46.1505 65.5754 46.3124 65.6083 47.0863 66.4287C47.7143 67.0947 47.8548 67.1475 48.9934 67.1475C51.4544 67.1475 51.2501 65.9467 52.8909 67.2507C53.385 67.6435 53.9742 67.965 54.2001 67.9648C55.643 67.9636 57.1142 67.0013 58.4225 66.4952C60.7202 65.6062 63.1309 65.1669 65.5973 65.3635C70.6471 65.7662 75.2694 68.0356 80.036 69.5C83.6538 70.6115 87.4567 71.1187 91.2394 70.9915C92.9512 70.934 94.8327 70.8984 96.4659 70.3683C98.2746 69.7812 99.9096 68.7702 101.616 67.9508C102.376 68.7135 103.169 70.2645 104.116 70.6994C104.584 70.9145 105.114 70.9464 105.63 70.9506C106.629 70.9588 107.787 71.0991 108.736 70.7091C109.882 70.2385 110.238 68.7656 110.783 67.7415C111.132 67.0836 111.01 67.0535 113.347 68.3712C114.565 69.0583 115.934 69.3419 117.149 70.026C118.738 70.9205 120.951 70.8482 122.734 70.8998C124.77 70.9586 126.811 70.8451 128.828 70.5642C133.522 69.9102 137.718 68.0546 142.098 66.4252C144.51 65.5286 147.573 64.8882 149.452 64.8882C155.259 64.8882 155.768 67.2346 159.017 67.7163C160.518 67.9389 160.3 67.934 161.714 66.6924C162.278 66.9574 163.451 67.558 164.078 67.558C164.776 67.558 166.023 67.0226 166.343 66.5859C166.572 66.2723 166.659 66.2659 167.147 66.5272C168.7 67.3587 169.151 64.9032 166.924 62.3954C165.841 61.1758 165.955 61.4529 166.25 60.6062C166.399 60.18 166.612 59.9593 166.875 59.9593C167.788 59.9593 169.915 61.4134 170.179 62.2184C170.235 62.3878 170.093 62.896 169.864 63.348C169.432 64.2019 169.304 65.8424 169.605 66.6853C169.981 67.7427 167.958 66.4363 168.37 68.0795C168.794 69.769 173.892 69.9954 175.704 66.4715C176.221 65.4672 176.443 63.2184 176.1 62.4675C175.094 60.2672 174.103 58.8799 173.206 58.4161C172.154 57.8719 171.403 57.0173 171.251 56.1899C171.132 55.5428 170.934 55.2897 170.168 54.8036C169.652 54.4767 169.115 54.2091 168.975 54.2091C168.5 54.2091 168.441 53.7667 168.809 52.9522C169.41 51.6193 168.695 52.1942 168.695 51.2183C168.695 50.5777 169.352 50.6939 172.702 49.4745C174.251 48.9104 176.55 48.3594 176.55 48.3594C177.996 47.7564 174.402 50.3867 175.384 52.7368C176.059 54.3532 177.385 55.0065 177.643 53.8497C178.091 51.8399 178.561 51.6441 181.322 50.2508C183.295 50.4661 187.617 50.3453 190.901 55.2066C191.34 55.8563 191.559 56.5028 191.7 57.5683C192.012 59.9179 192.446 60.266 191.457 59.7366C189.856 58.8804 189.419 62.0328 189.462 63.3299C189.513 64.8821 189.092 65.3047 187.514 65.2874C185.416 65.2645 184.437 64.559 184.179 62.8859C183.749 60.0987 186.496 65.1568 189.139 60.9683C190.001 59.6031 189.704 58.1642 188.282 56.8152C187.244 55.831 186.449 55.5845 184.756 55.7217C181.259 56.0052 178.022 58.3271 177.768 62.0294C177.447 66.7037 182.028 70.3666 186.276 70.9367C188.273 71.2047 190.376 71.093 192.313 70.5178C194.052 70.0015 195.079 68.6216 196.586 67.6983C197.509 67.1329 198.407 66.5555 199.396 66.0547C200.389 65.5521 200.958 65.4131 202.328 65.3391C205.026 65.1933 206.058 65.7334 206.068 67.2946C206.072 67.8811 207.719 70.3313 209.074 68.6365C209.661 67.9023 209.898 68.1619 209.587 69.1991C209.222 70.4191 209.647 70.7885 210.873 70.7885C211.598 70.7815 211.992 70.2583 212.291 69.6923C212.424 69.4401 212.538 69.1793 212.654 68.9518C213.514 67.2657 212.638 63.837 209.626 62.5048ZM176.277 36.4371C177.836 36.8248 177.544 37.3961 175.275 38.392C173.942 38.9771 173.478 39.072 171.64 39.1361C169.864 39.1981 168.484 39.1167 170.189 38.6113C172.112 38.0408 173.785 35.8177 176.277 36.4371ZM171.333 33.5361C172.932 32.0936 176.676 30.9633 175.442 32.6157C173.178 35.6449 172.738 36.3066 170.394 37.426C169.675 37.77 168.077 38.0966 168.077 37.8994C168.077 37.6642 170.796 34.0219 171.333 33.5361ZM167.063 33.8549C167.168 33.6566 167.255 33.345 167.255 33.1618C167.255 32.7746 168.388 29.5175 169.071 31.7972C169.429 32.9917 169.366 33.5581 168.72 34.961C168.396 35.6646 167.8 36.5545 167.395 36.9385L166.658 37.637C166.702 36.9371 166.822 34.3043 167.063 33.8549ZM160.187 40.1072C160.571 39.9598 160.991 40.3251 160.797 40.6376C160.39 41.2964 159.557 40.3492 160.187 40.1072ZM163.21 32.9569C163.139 33.3139 162.532 33.3113 162.532 32.954C162.532 32.4636 163.258 32.7198 163.21 32.9569ZM161.806 34.6679C162.062 34.6229 162.236 34.7284 162.283 34.9564C162.366 35.3598 161.628 35.4762 161.394 35.0969C161.227 34.8267 161.293 34.758 161.806 34.6679ZM158.33 39.0053C158.692 38.7054 159.185 39.0242 158.949 39.4054C158.741 39.7419 157.425 39.7571 158.33 39.0053ZM158.794 42.052C157.88 42.9664 157.284 41.0662 158.521 41.0662C159.089 41.0662 159.239 41.6072 158.794 42.052ZM158.835 27.9226C158.722 27.9226 158.63 27.7858 158.63 27.6184C158.63 27.2783 159.489 26.9928 159.964 27.1752C160.416 27.3486 160.346 27.7262 159.666 28.7989C158.47 30.685 154.153 31.8961 156.866 30.3059C159.692 28.6499 159.041 27.9226 158.835 27.9226ZM153.906 30.1815C154.027 29.9556 154.243 29.7709 154.387 29.7709C154.896 29.7709 157.494 26.6904 156.039 26.6904C155.162 26.6904 157.036 25.6636 157.532 25.6636C158.512 25.6636 156.51 29.1339 155.005 30.0429C153.904 30.7075 153.605 30.7453 153.906 30.1815ZM148.772 37.7149C148.772 37.4327 148.101 37.5863 147.517 38.0018C145.205 39.6482 148.325 35.7264 151.156 35.7264C151.596 35.7264 151.611 35.7686 151.397 36.3939C150.229 39.7954 148.204 39.5185 146.457 41.053C146.062 41.3991 145.683 41.6821 145.613 41.6821C144.688 41.6822 148.772 38.0621 148.772 37.7149ZM146.721 31.9351C147.087 32.9768 145.979 33.7944 146.448 32.041C146.57 31.5831 146.594 31.5736 146.721 31.9351ZM145.569 26.545C145.84 26.6335 146.549 28.7252 146.393 28.9773C146.1 29.4507 145.553 28.6641 145.772 29.9249C145.982 31.1392 146.392 34.4964 145.529 33.6332C145.197 33.3015 145.393 33.0706 145.041 31.7562C144.752 30.6764 145.183 26.4194 145.569 26.545ZM49.9895 32.4407C50.5335 32.4407 50.5337 33.0568 49.9895 33.0568C49.4455 33.0568 49.4455 32.4407 49.9895 32.4407ZM50.4254 35.2587C50.0616 34.8949 50.156 34.4944 50.6056 34.4944C51.1119 34.4944 50.9676 34.5386 51.1307 34.9646C51.2753 35.3409 50.7334 35.567 50.4254 35.2587ZM52.1348 33.575C51.7889 33.3112 51.7767 33.2424 52.0432 33.0641C52.4743 32.7755 52.6529 32.8016 52.7957 33.1735C52.99 33.6797 52.5906 33.9227 52.1348 33.575ZM41.056 38.9138C37.0889 37.6371 39.3267 38.2525 35.1003 36.0528C37.8234 35.6171 37.7805 35.4913 39.5174 36.9461C40.3183 37.6168 41.2934 38.2714 41.6843 38.4004C43.041 38.8484 41.7869 39.1498 41.056 38.9138ZM37.8935 33.2357C37.7607 32.8257 37.4727 32.3283 37.2538 32.1301C36.3974 31.355 37.4668 31.1663 38.9972 31.8225C40.0885 32.2904 41.9137 33.7558 42.0876 34.3041C42.2546 34.8294 45.6768 38.1403 45.6768 38.4133C45.6768 39.0512 39.2343 37.3705 37.8935 33.2357ZM46.8722 37.4746C46.7373 37.6097 45.2264 36.5466 44.7007 35.9464C43.9414 35.0802 43.3548 33.6444 43.2579 32.4155C43.1591 31.1639 43.3338 30.886 44.0989 31.078C45.4972 31.4289 45.6397 34.5729 46.5149 36.435C46.7608 36.9578 46.9215 37.4256 46.8722 37.4746ZM52.7476 40.6789C52.4773 41.1162 51.5256 40.6796 52.0113 40.1946C52.2677 39.9382 52.9344 40.3768 52.7476 40.6789ZM54.4564 39.0516C55.1877 39.1924 54.6414 40.1045 54.238 39.7014C53.956 39.4193 54.1023 38.9835 54.4564 39.0516ZM54.8158 41.5796C54.8158 42.0697 54.0705 42.248 53.7314 41.8394C53.1036 41.0834 54.8158 40.7395 54.8158 41.5796ZM54.0069 29.1025C53.4282 29.1434 53.2231 29.042 52.8631 28.5364C51.9434 27.2451 53.0056 26.549 54.103 27.724C54.8261 28.4974 55.0382 29.029 54.0069 29.1025ZM56.048 30.7978C55.8807 30.5273 56.7667 30.5244 56.7667 30.7978C56.7667 31.0607 56.2185 31.0737 56.048 30.7978ZM55.4189 28.0218C54.9244 27.1781 54.7276 25.6004 55.0887 25.3773C55.3497 25.216 56.5108 26.1143 56.7688 26.6773C57.1545 27.5189 58.7306 29.1548 58.04 29.1548C57.7077 29.1548 57.5185 28.5638 57.2912 28.9313C57.0675 29.2933 58.615 29.8939 58.615 30.0993C58.6152 30.4158 56.4493 29.7799 55.4189 28.0218ZM66.2587 31.2238C66.0223 31.8563 66.0071 31.7435 66.108 30.1054C66.3511 26.1493 68.1575 25.6782 67.5485 31.5482C67.4765 32.2433 67.2813 32.9826 67.1151 33.1913C66.8431 33.5319 66.8191 33.4092 66.8766 31.9775C66.9453 30.2687 66.7191 29.993 66.2587 31.2238ZM68.5707 44.8278C68.0486 43.8553 66.8271 42.597 65.3642 41.5251C63.7155 40.3172 63.0886 39.4164 62.4969 37.4052C62.2761 36.6546 62.2812 36.4877 62.5304 36.3303C63.1498 35.9388 64.8877 36.5737 66.2755 37.6986C66.744 38.0783 67.8567 40.1819 67.8567 40.6881C67.8567 40.7907 67.4194 40.4559 66.8848 39.9436C65.9743 39.0713 65.1869 38.7387 65.1869 39.2267C65.1869 39.3445 65.6721 39.9223 66.2651 40.5102C66.858 41.0985 67.6552 42.1801 68.0364 42.9143C69.0112 44.7909 69.2942 44.7794 69.2942 45.2409C69.2942 45.801 69.0043 45.6352 68.5707 44.8278ZM39.0791 68.4235C38.525 68.1985 37.8658 67.0591 37.5074 65.706C37.1036 64.1821 37.721 61.2135 38.6909 60.0144C39.234 59.3433 42.7536 56.3665 41.552 58.4035C41.2986 58.8331 41.0916 59.6548 41.019 60.5197C40.9071 61.8554 40.9419 62.0128 41.6506 63.3824C42.4523 64.932 42.4554 65.5052 41.6615 65.5052C41.3399 65.5052 41.092 65.3187 40.9113 64.9405C40.5474 64.1787 39.7804 64.0689 39.6082 64.754C39.38 65.6638 40.715 67.5388 41.9922 68.1023C44.1795 69.0677 41.0302 69.215 39.0791 68.4235ZM164.926 45.3876C165.464 45.3772 173.526 41.5519 183.274 42.6984C189.658 43.4489 191.681 45.5625 193.953 47.8936C196.246 50.2455 197.018 51.7325 197.766 55.2367C198.018 56.4227 198.159 57.4639 198.078 57.5506C197.828 57.8175 197.65 57.4618 197.648 56.6916C197.638 53.4405 193.468 44.2098 183.362 43.1468C181.244 42.9243 175.249 43.035 174.341 43.3132C174.002 43.4172 173.309 43.5612 172.801 43.6338C170.653 43.9396 168.813 44.3941 166.179 45.2699C160.445 47.1757 164.548 45.3951 164.926 45.3876ZM154.772 50.0728C154.951 49.5355 163.612 45.5187 161.813 46.8993C161.587 47.0725 161.264 47.2234 161.095 47.2344C160.774 47.2554 157.124 49.2568 156.558 49.6003C155.389 50.31 154.625 50.5121 154.772 50.0728ZM139.297 28.5387C140.328 30.2131 141.79 33.9097 141.79 34.8431C141.79 35.0579 141.866 35.3215 141.96 35.4288C142.374 35.9028 142.63 38.5852 142.644 42.6064C142.683 53.0921 139.211 54.9118 140.352 52.2944C140.768 51.34 141.466 47.8936 141.691 45.6869C142.157 41.1172 141.252 35.083 139.688 32.3379C139.366 31.7732 138.932 30.9414 138.722 30.4896C137.318 27.4592 131.328 23.1989 129.463 23.1989C128.74 23.1989 129.032 23.7851 129.96 24.1956C131.181 24.7357 134.101 26.6861 135.133 27.6513C136.8 29.2105 139.12 32.6678 139.12 33.593C139.12 33.8351 139.258 34.3636 139.426 34.7671C140.833 38.134 140.677 41.1092 140.662 42.8589C140.596 50.331 139.949 49.2609 139.944 47.0667C139.94 45.4916 139.311 43.4993 138.489 42.4644C137.567 41.3027 137.493 38.8757 139.394 41.9389C139.788 42.5721 140.354 42.6938 140.349 42.1443C140.34 41.1613 139.212 39.0793 138.109 38.0113C136.749 36.6942 134.639 36.9741 134.257 34.6187C134.144 33.9235 134.17 33.8783 134.684 33.8783C135.482 33.8783 137.07 34.7528 137.819 35.604C138.951 36.891 139.753 36.4477 138.957 34.9743C138.524 34.1733 136.269 31.6191 135.995 31.6191C135.885 31.6191 135.537 31.4361 135.223 31.2125C134.506 30.7016 132.613 30.1809 131.015 30.0552C128.882 29.8873 127.252 28.5513 128.033 27.6109C128.377 27.1961 128.908 27.336 131.521 27.5546C132.528 27.6384 132.471 27.1098 131.418 26.6058C130.303 26.072 129.987 25.8687 129.487 25.8687C128.828 25.8687 126.54 25.2309 125.739 24.8244C125.043 24.4703 124.983 24.3671 124.903 23.359C124.856 22.7626 124.897 22.1823 124.996 22.0693C125.175 21.8639 128.509 21.6414 129.815 22.2944C130.827 22.8007 131.372 22.647 130.954 21.973C130.718 21.5922 130.745 21.5559 131.262 21.5563C131.66 21.5568 132.41 22.0227 133.78 23.1207C138.022 26.5207 136.425 23.8762 139.297 28.5387ZM139.34 52.0123C139.308 51.4695 139.782 49.6917 139.958 49.6917C140.062 49.6917 140.144 49.7611 140.141 49.8457C140.129 50.1543 139.354 52.2515 139.34 52.0123ZM127.625 42.603C126.769 43.1316 129.893 45.6972 130.491 47.2766C130.987 48.5898 132.491 50.5726 132.106 55.2633C131.916 57.5746 131.54 58.8078 130.585 60.2501C128.031 64.1047 125.523 65.8514 121.869 66.3212C121.022 66.4302 120.19 66.5093 120.02 66.497C116.698 66.2564 115.998 66.1213 114.725 65.4753C113.537 64.8723 112.286 64.1026 111.615 62.9243C110.876 61.6275 110.457 60.1214 110.591 58.6233C110.753 56.8186 111.783 55.0599 113.397 54.2364C115.011 53.413 117.176 53.679 118.393 55.0213C116.836 54.0128 114.618 54.293 113.242 55.5377C111.866 56.7824 111.349 58.8376 111.801 60.6372C112.254 62.4368 113.593 63.9515 115.247 64.7942C118.353 66.3774 122.825 63.3326 122.389 59.8413C122.259 58.7968 122.28 58.6976 122.622 58.7609C123.138 58.8564 123.94 60.5316 123.802 61.2241C123.51 62.6902 125.979 62.2567 123.999 57.3982C123.536 56.2652 123.214 55.0896 123.152 54.3082C123.057 53.1276 123.086 53.0196 123.602 52.613C125.59 51.0493 126.353 55.8525 127.219 55.8525C127.426 55.8525 127.653 55.7586 127.724 55.6438C128.391 54.564 128.099 58.1347 128.319 58.4913C128.866 59.3761 130.88 57.8022 129.996 54.2833C129.503 52.3206 129.056 51.5773 127.475 50.0919C123.606 46.4588 126.464 45.9622 127.985 48.0285C128.427 48.6293 129.113 48.8663 129.342 48.497C129.468 48.2916 128.303 46.2222 126.429 44.8759C125.395 44.1329 124.735 43.1297 124.75 42.3244C124.763 41.6729 125.704 40.8606 126.447 40.8606C127.47 40.8606 129.638 42.0283 130.715 43.1595C131.822 44.3223 132.46 44.4775 132.272 43.5384C132.102 42.6888 132.501 42.5401 133.062 43.2438C133.951 44.3592 134.294 45.8671 134.294 48.6647C134.294 51.1509 134.308 51.2338 134.744 51.2961C135.114 51.3487 135.218 51.2326 135.328 50.6463C135.479 49.8393 136.157 48.9972 136.49 49.2028C136.749 49.3627 136.849 52.4949 135.121 54.415C133.849 55.8294 132.535 60.4298 133.146 56.4966C134.502 47.7525 127.91 42.4267 127.625 42.603ZM84.6373 43.6718C84.2191 42.5814 81.4262 45.0945 79.9619 49.2604C79.3652 50.9584 79.4343 55.0989 80.1029 57.7011C80.2794 58.3888 80.0716 58.1619 78.6663 56.1339C78.0299 55.2154 77.509 54.3329 77.509 54.1725C77.509 54.0124 77.4131 53.7854 77.296 53.6681C76.9772 53.3494 76.7803 49.9908 77.0699 49.8119C77.2138 49.7228 77.3036 49.8201 77.3036 50.0651C77.3036 50.5374 77.8123 51.0144 78.116 50.8266C78.2339 50.7539 78.3317 50.0295 78.3317 49.2172C78.3335 46.6591 78.9022 45.9995 79.3741 44.4545C79.9137 42.6877 80.7066 42.0967 80.4762 43.633C80.362 44.3941 80.3942 44.5572 80.6594 44.5572C80.8365 44.5572 81.1471 44.3151 81.3501 44.0191C82.9273 41.7186 86.0676 40.7213 86.2732 40.8001C86.4125 40.8534 86.7211 41.2273 86.9592 41.6306C87.2964 42.2024 87.3614 42.5449 87.2531 43.185C86.993 44.7261 83.3767 47.2231 83.5039 48.1119C83.5985 48.7739 84.2435 48.804 84.489 48.1581C84.7087 47.5803 86.3462 45.6111 86.3382 47.2781C86.3331 49.0498 81.2615 52.3872 82.5109 57.1725C82.9726 58.9407 83.6551 59.5349 84.3851 58.8047C84.6274 58.5626 84.6789 58.2954 84.5737 57.8292C84.3698 56.9263 84.4513 54.6687 84.7048 54.195C85.0514 53.5475 85.3799 53.7195 85.2558 54.4835C84.9971 56.0829 86.0752 55.6795 86.2537 55.0867C86.4235 54.522 87.3913 52.71 87.7367 52.3095C88.6061 51.3022 88.4142 52.8459 89.1609 53.1213C91.1156 53.843 87.4154 56.6113 88.2028 60.1269C88.5028 61.4653 88.9519 62.2185 89.4498 62.2185C90.084 62.2185 89.6838 61.9938 89.4869 60.1605C89.4051 59.3995 89.4651 59.1615 89.8196 58.8406C91.0993 57.6823 90.1333 60.3165 90.349 61.1851C90.5822 62.1232 91.5246 63.3803 92.4835 64.0317C94.2618 65.2396 97.1316 65.1167 98.7107 63.7649C100.974 61.8272 101.845 58.9303 100.791 56.839C100.386 56.0364 98.411 54.7928 97.3512 54.6733C96.5779 54.586 96.3767 54.6557 95.7107 55.2404C94.8808 55.9693 94.5647 55.9308 94.9228 55.1451C96.1069 52.5463 102.359 53.4459 102.359 59.5535C102.359 63.0539 99.7208 65.801 96.7269 66.342C96.1535 66.4456 95.3148 66.6033 94.863 66.6928C93.8325 66.8966 90.7277 66.509 89.2153 65.9878C86.7207 65.1282 83.9363 62.9313 82.8607 60.9747C81.0309 57.6459 80.8155 56.9336 80.6585 53.6957C80.4069 48.5068 82.6708 45.2172 84.388 44.2357C84.6338 44.096 84.7228 43.8941 84.6373 43.6718ZM76.005 39.2146C76.7744 38.4555 78.0852 37.2766 78.7518 35.8718C79.5805 34.1269 80.0637 34.1558 80.612 33.1278C81.2507 31.9303 86.3399 29.8602 86.3399 30.7976C86.3399 31.0756 86.1809 30.8767 85.6169 31.2889C84.8201 31.8715 86.2375 32.0587 85.2726 32.3371C83.6697 32.7991 82.3055 33.7367 80.5476 35.5843C76.7785 39.5457 77.8933 45.1126 77.4 47.5353C77.354 47.7613 76.9987 48.1973 76.6105 48.5043C75.6825 49.2381 75.6411 49.1243 75.5149 45.4816L75.4153 42.6064C76.2384 41.3809 75.9339 41.8342 76.7563 40.61L76.005 39.2146ZM80.182 31.8759C80.1918 31.3945 81.523 30.4805 81.7291 30.8139C81.9033 31.0954 81.854 31.0433 81.0714 31.5831C80.3839 32.0572 80.1767 32.1255 80.182 31.8759ZM77.0008 55.2367C78.7519 58.0435 76.4385 57.086 75.2588 53.7991C73.7853 49.6939 74.1349 50.2692 73.6933 46.8885C73.4106 44.7322 74.2279 40.528 74.2199 45.3274C74.2145 48.6981 75.7248 53.1901 77.0008 55.2367ZM76.3384 57.4353C76.3878 57.2992 76.5514 57.465 76.7018 57.8037C77.1986 58.9216 77.4919 58.9505 78.0064 60.6275C78.2056 61.2771 78.4426 61.8083 78.533 61.8083C78.8748 61.8083 79.2356 63.3824 78.3728 61.9732C77.6121 60.7306 76.2475 57.6865 76.3384 57.4353ZM98.5275 56.7826C98.1389 56.2125 98.1843 56.0129 98.638 56.2962C99.8684 57.0644 100.979 61.2537 97.7465 63.1202C97.1686 63.4539 93.5392 64.8712 91.8988 61.9857C91.4014 61.111 91.3582 60.5171 91.7677 60.1772C92.002 59.9827 92.1051 60.015 92.2775 60.3369C92.7136 61.152 95.0882 61.6281 96.5814 61.1998C98.4499 60.6643 99.519 58.2373 98.5275 56.7826ZM91.6779 53.2411C91.0955 53.9818 90.6697 56.5641 90.1112 56.9875C89.3086 57.5954 89.2071 57.3024 89.9028 56.3856C90.5165 55.5769 90.8391 54.5839 90.907 53.2942C90.9563 52.3632 90.9124 52.2523 90.3961 51.9993C89.9775 51.7945 89.8314 51.572 89.8314 51.14C89.8314 50.0618 88.8943 50.1653 87.1655 51.4345C85.8679 52.3868 85.5849 52.1756 84.8511 52.4677C83.1333 53.1511 88.1695 48.4891 87.5665 46.3853C87.4218 45.8816 87.4853 45.49 87.8577 44.5847C88.9884 41.8358 89.1733 40.6552 88.473 40.6552C87.8082 40.6552 87.5039 38.8324 85.0051 40.0391C83.732 40.6543 84.1699 40.2622 83.1331 40.9661C81.3404 42.1825 81.2851 40.3492 79.615 42.0879C79.1598 42.5616 78.7387 42.8708 78.6791 42.7744C78.4996 42.4842 78.9009 40.738 79.4847 39.2676C80.5512 36.5825 81.8813 35.1064 84.3478 33.872C85.7861 33.1522 86.1466 33.0568 87.4306 33.0568C88.7208 33.0568 88.9481 33.1177 89.4484 33.5969C90.0239 34.1485 90.6528 34.151 90.6528 33.6018C90.6528 31.8695 88.6227 31.0686 87.4031 30.1176C86.8406 29.6789 86.4783 29.5537 85.894 29.596C85.4714 29.6264 85.0766 29.6028 85.017 29.5431C84.9573 29.4835 85.2306 29.1227 85.6243 28.7411C87.035 27.3738 85.6666 27.0739 87.0237 26.2731C87.8224 25.802 89.0097 24.2351 89.0097 23.6526C89.0097 22.0177 92.9753 23.104 94.1469 24.0718C94.6425 24.4812 95.1995 25.4513 95.0644 25.6699C94.9352 25.879 93.2672 26.6904 92.9667 26.6904C92.7252 26.6904 90.9547 28.5455 90.6766 29.0901C90.3587 29.7122 90.3897 31.4946 90.7326 32.3152C91.0435 33.0593 92.5641 34.6271 93.1574 34.8154C93.6247 34.9636 93.6978 36.7013 93.2441 36.8752C92.8474 37.0276 90.4642 35.3902 89.7183 35.1067C87.6062 34.3035 88.308 39.9004 92.2836 43.0869C92.7541 43.4643 93.106 43.872 93.0658 43.9929C93.0254 44.1139 92.5402 44.3448 91.9874 44.5059C89.62 45.1962 87.7326 47.2273 90.7788 47.2273C92.3476 47.2273 93.7872 48.4388 96.6329 47.5081C97.9615 47.0735 99.711 47.2201 100.819 47.859C101.956 48.515 104.312 50.611 104.8 51.4002C105.105 51.8931 105.254 52.6853 105.407 54.6209C105.866 60.4394 105.261 55.1324 103.6 53.4451C102.769 52.6007 100.092 50.924 99.5756 50.924C99.3162 50.924 98.6374 50.8164 98.0669 50.6848C95.9867 50.2042 93.1846 51.3256 91.6779 53.2411ZM96.1993 25.2528C95.3387 22.9913 91.7893 21.5237 90.6041 21.8338C90.2932 21.9152 89.8816 21.7731 89.3384 21.3966C88.2 20.6079 87.1772 20.7728 84.1836 21.1391C89.1515 18.8691 97.7142 19.4363 99.8109 25.1848C100.651 27.4879 100.325 30.6917 98.452 31.9787C97.6601 32.5232 96.9657 32.4225 96.3003 32.4073C97.0507 32.0782 98.662 31.5676 98.662 29.4929C98.662 27.1 96.8687 27.0109 96.1993 25.2528ZM104.131 41.8442C104.029 42.0095 103.725 41.8951 103.14 41.4718C99.6934 38.9745 100.906 45.8409 101.002 46.0463C101.12 46.2975 101.084 46.4058 100.883 46.4058C100.483 46.4058 98.9812 44.7887 98.6905 44.044C98.0003 42.2775 98.4678 39.1136 96.8706 37.0197C95.7749 35.5833 97.1374 35.7266 98.1946 35.7266L98.4241 36.87C99.1271 40.3699 102.685 40.57 103.986 39.608C104.33 39.353 104.656 39.1878 104.709 39.241C104.823 39.3542 104.347 41.4946 104.131 41.8442ZM104.821 49.0718C104.949 49.3117 105.025 49.6456 104.99 49.8138C104.888 50.2997 102.919 47.8951 102.368 46.611C101.722 45.1079 101.523 42.4266 102.042 42.2274C102.482 42.0587 103.591 43.1191 103.591 43.7079C103.591 43.9359 103.683 44.1794 103.796 44.2493C103.909 44.3191 104.002 44.8284 104.002 45.3811C104.002 46.4324 104.422 48.3264 104.821 49.0718ZM96.858 46.4919C94.6432 46.8672 92.4561 46.7046 91.4625 46.0906C90.7856 45.6721 93.6148 44.9071 95.4886 45.0017C97.8889 45.1228 98.8382 46.1562 96.858 46.4919ZM97.13 42.3497C97.1998 43.1123 97.2179 43.736 97.17 43.736C96.4455 43.736 93.4834 36.7535 95.0652 36.7535C96.12 36.7535 96.7807 38.5446 97.13 42.3497ZM94.76 43.6577C93.8721 43.3785 91.1169 40.6459 90.5786 39.5106C90.3684 39.0671 90.1259 38.563 90.0399 38.3898C89.7239 37.7537 89.6025 36.7922 89.8213 36.657C90.1754 36.4381 91.8836 37.4053 92.5799 38.2188C92.9329 38.6314 93.5354 39.6023 93.9187 40.3771C95.6413 43.8585 96.9307 44.34 94.76 43.6577ZM105.642 48.4925C105.147 46.9149 105.075 42.9468 105.514 41.4768C105.889 40.2245 105.535 40.0385 105.884 40.0419C106.035 40.0434 106.389 40.6671 106.672 41.4281C107.433 43.4805 107.282 47.619 106.776 49.0754C106.329 50.3617 106.057 50.7828 106.053 50.1947C106.051 49.9747 105.866 49.2086 105.642 48.4925ZM105.634 63.3769C105.443 63.8796 104.816 64.0583 104.832 63.6055C104.846 63.2064 105.337 61.4319 105.47 61.2989C105.682 61.0862 105.824 62.8774 105.634 63.3769ZM105.338 66.5278C105.163 67.0785 105.774 67.614 106.273 67.3472C106.637 67.1521 106.765 66.8542 106.92 65.8353C107.009 65.2551 107.59 64.9542 107.987 65.2834C108.278 65.5252 108.27 65.6072 107.901 66.1246C107.268 67.0146 107.714 67.0733 107.018 67.7283C105.887 68.7905 104.777 67.6615 104.727 66.9783C104.712 66.7754 104.576 66.3096 104.424 65.943C103.722 64.2487 105.858 64.8907 105.338 66.5278ZM107.152 60.987C107.253 61.303 107.641 62.781 107.84 63.6054C107.934 63.9953 107.868 64.0674 107.414 64.0674C106.682 64.0674 106.958 63.8446 106.753 62.1612C106.652 61.3296 106.967 60.4033 107.152 60.987ZM107.668 56.0582C106.783 58.2701 106.671 58.2425 106.671 55.813C106.671 51.3947 107.796 51.8814 110.264 49.6233C110.491 49.4161 111.298 48.8272 112.058 48.3148C113.81 47.1345 114.695 47.0068 116.741 47.64C120.061 48.6676 121.445 47.2557 122.728 46.948C123.501 46.7622 124.191 45.7392 121.733 44.6415C121.151 44.3815 120.612 44.0677 120.535 43.9443C120.459 43.8207 120.999 43.0816 121.737 42.2995C124.268 39.6157 122.999 39.3752 123.922 36.7536C124.41 35.3674 124.427 34.9855 124.008 34.8246C123.158 34.4985 121.731 35.018 120.625 36.0561C119.89 36.7457 119.66 36.6759 119.392 35.6831C119.176 34.8796 119.194 34.7906 119.641 34.437C122.053 32.5308 122.85 30.7716 122.196 28.8013C121.582 26.9527 119.869 25.4752 118.326 25.4628C116.971 25.4521 118.148 23.8159 119.881 23.3015C121.018 22.9637 123.04 22.8964 123.49 23.1815C123.667 23.2936 123.729 23.5405 123.654 23.8286C123.155 25.7361 127.538 26.0732 126.342 27.2692C126.146 27.4657 126.178 27.679 126.493 28.265C127.091 29.3736 126.813 28.7752 125.531 30.0031C124.241 31.2387 122.674 31.441 122.367 32.9793C122.171 33.9578 122.692 34.2434 123.623 33.6676C125.852 32.2907 131.432 33.8416 133.487 39.0384C134.003 40.3438 134.683 43.1072 134.527 43.2636C134.481 43.309 133.931 42.8331 133.304 42.2061C132.2 41.1016 131.682 40.8451 131.418 41.2716C130.801 42.2712 127.637 39.4233 125.509 39.4233C124.94 39.4233 124.539 39.778 124.539 40.2807C124.539 40.9333 123.306 40.9071 123.306 41.7971C123.306 42.3453 124.186 44.2342 124.663 44.7116C125.032 45.08 125.027 45.4698 124.649 45.7831C124.096 46.2423 124.091 46.8142 124.628 48.221C124.979 49.1392 125.378 49.7843 125.799 50.1147C127.11 51.1436 127.984 52.1219 128.371 52.9951C128.599 53.5098 128.585 53.5254 127.912 53.502C127.345 53.4825 126.995 53.2473 126.012 52.2272C124.434 50.589 122.896 50.0395 122.896 51.1138C122.896 51.6639 122.074 52.3126 122.074 53.0102C122.074 53.7323 122.607 56.1347 122.88 56.6454C123.141 57.1325 123.024 57.4956 122.608 57.4956C122.454 57.4956 122.241 57.0074 122.093 56.3148C121.585 53.9307 121.262 53.2265 120.286 52.367C118.48 50.7779 116.786 50.3258 114.456 50.8115C111.63 51.4007 108.777 53.284 107.668 56.0582ZM107.599 49.9485C108.421 47.9771 108.387 42.9359 109.877 42.3643C110.409 42.16 110.48 42.5531 110.344 44.934C110.205 47.3642 110.183 47.4184 108.558 49.4348C107.84 50.3249 107.327 50.5996 107.599 49.9485ZM112.634 35.3869C112.642 34.4205 112.65 34.4068 112.935 34.9052C113.555 35.9893 113.14 38.0636 112.182 38.6663C111.483 39.1061 109.753 39.2086 109.005 38.8544C107.898 38.3304 107.525 36.3599 108.379 35.5572C108.948 35.0229 110.578 34.9287 110.975 35.4073C111.37 35.8831 111.144 36.6199 110.51 36.9225C108.525 37.8713 112.606 39.2548 112.634 35.3869ZM111.011 40.3891C113.483 39.0241 114.449 38.8587 114.476 35.3159C114.757 35.3159 117.104 35.3205 117.294 35.3005C117.689 35.2599 117.531 35.7918 116.999 36.2947C115.378 37.8272 114.283 40.3321 114.259 42.5653C114.243 44.0324 113.922 44.7699 112.773 45.9832C111.744 47.0698 111.316 47.4827 111.517 46.2318C111.604 45.6864 111.888 41.3825 111.263 40.7581C111.083 40.578 110.97 40.4119 111.011 40.3891ZM117.868 43.9414C117.627 43.9414 117.786 43.2505 118.145 42.7411C118.712 41.9353 119.686 38.7816 120.344 37.8756C120.887 37.1268 122.384 36.051 122.652 36.2166C122.93 36.3882 122.322 39.1413 121.761 40.2516C120.651 42.4486 118.074 43.9414 117.868 43.9414ZM120.622 46.4281C119.445 46.9801 118.401 47.019 116.786 46.5702C115.316 46.1621 114.925 45.7836 115.656 45.4782C116.535 45.1113 123.853 44.9121 120.622 46.4281ZM115.444 44.0096C115.3 43.775 115.676 40.8186 115.697 40.2342C115.704 40.0288 118.586 34.4035 118.582 37.6383C118.578 40.5454 115.789 44.5776 115.444 44.0096ZM114.891 30.3135C115.954 31.3212 116.477 31.6031 117.299 31.612C119.571 31.6369 115.246 33.648 112.966 31.3011C111.643 29.9384 111.502 27.895 112.557 25.3733C113.997 21.9339 117.072 20.2523 122.428 19.9756C125.551 19.8141 128.152 20.4928 125.579 20.7975C125.021 20.8637 124.167 21.1144 123.679 21.3549C122.419 21.9765 120.65 22.0285 119.345 22.4199C118.406 22.7009 116.85 24.0185 116.394 24.9172C115.696 26.2943 114.065 26.8226 114.065 28.8393C114.065 29.3803 114.245 29.7014 114.891 30.3135ZM126.808 30.7464C126.699 29.6676 132.369 31.3766 133.116 35.154C133.223 35.6947 133.301 36.1332 133.289 36.1283C132.931 35.981 130.422 32.7441 127.162 32.3495C124.248 31.9959 124.429 31.9635 124.949 31.8109C125.232 31.728 125.763 31.651 126.13 31.6398C126.783 31.6197 126.884 31.4869 126.808 30.7464ZM137.154 42.4564C137.718 43.553 137.736 43.6878 137.705 46.4571C137.682 48.4462 137.507 48.8722 137.056 48.0309C136.884 47.7084 136.703 47.633 136.327 47.7276C135.576 47.9162 135.365 47.162 135.654 45.3148C135.981 43.2232 135.499 40.849 134.11 37.7077C133.575 36.498 133.648 36.2409 134.313 36.9866C134.975 37.7281 139.176 39.2179 137.281 39.2179C136.492 39.2179 136.421 41.028 137.154 42.4564ZM117.83 61.1924C118.643 61.1924 120.431 60.6144 120.431 60.3516C120.431 60.2493 120.628 60.1656 120.869 60.1656C121.257 60.1656 121.293 60.2498 121.186 60.9062C120.724 63.7507 117.217 64.5392 114.748 62.9805C113.797 62.3803 113.436 61.8748 112.969 60.4885C112.555 59.2625 112.545 58.6744 112.919 57.5986C113.241 56.675 113.526 56.675 113.574 57.5986C113.671 59.4735 115.706 61.1924 117.83 61.1924ZM135.847 54.9715C137.709 52.9799 138.55 47.7973 138.856 45.0709C138.912 48.7854 139.037 50.2443 137.534 53.8505C137.028 55.0648 136.554 56.0457 136.48 56.0302C136.407 56.0148 136.139 55.9623 135.885 55.9132C135.311 55.8026 135.301 55.5551 135.847 54.9715ZM134.399 32.2866C134.398 32.1456 134.449 32.03 134.513 32.03C134.762 32.03 135.557 32.5279 136.2 33.087C137.017 33.7963 136.882 33.7963 135.478 33.0868C134.886 32.7879 134.401 32.428 134.399 32.2866ZM135.332 11.7015C136.117 11.3671 136.874 11.0909 137.015 11.0878C137.365 11.0805 137.339 11.592 136.974 11.8951C136.81 12.0308 136.567 12.4753 136.432 12.8827C136.074 13.9688 134.447 15.1597 133.907 16.2987C133.302 17.5724 133.978 18.4222 134.794 17.4147C135.545 16.4865 136.192 17.3749 135.122 19.007C134.702 19.648 134.701 21.9879 135.121 22.7987C135.955 24.4134 134.307 22.3853 133.744 21.2721C132.964 19.7316 132.137 19.1448 132.137 16.3718C132.137 13.991 133.032 12.6824 135.332 11.7015ZM110.531 26.0743C110.621 26.0743 110.819 25.5139 110.971 24.8285C111.512 22.386 113.046 20.7663 116.465 19.026C117.498 18.5006 120.171 18.0699 122.588 18.0398C127.023 17.9841 131.727 19.9568 131.727 20.5668C131.727 20.8296 131.414 20.5744 129.67 20.2376C128.934 20.0956 128.132 19.8722 127.887 19.7413C127.04 19.2878 124.193 18.7246 123.181 18.8103C116.481 19.3778 114.615 19.9345 110.931 25.5263C110.888 29.1609 110.819 29.5404 111.356 30.6317C114.248 36.5026 121.498 32.2247 119.495 28.8072C119.216 28.3312 118.784 27.7988 118.534 27.6241C117.957 27.2196 116.456 27.2082 116.126 27.6057C115.739 28.0723 116.076 28.3526 116.962 28.3003C118.548 28.2069 119.173 29.8024 117.778 30.3805C114.992 31.5342 113.738 26.7188 117.6 26.6631C121.613 26.6049 122.748 31.5594 118.583 33.6883C117.531 34.2262 115.298 34.3192 113.97 33.8808C113.329 33.6694 113.163 33.6824 112.848 33.9676C112.5 34.2821 112.46 34.2612 112.196 33.6283C111.754 32.5676 112.224 32.672 111.519 31.9668C111.242 31.6898 110.87 30.9731 110.692 30.3744C110.359 29.2546 110.24 26.0743 110.531 26.0743ZM115.287 7.92594C116.638 8.72407 117.318 11.6522 116.645 13.7775C115.593 17.1024 111.647 19.1174 109.982 21.1454C109.75 21.4278 109.557 21.5615 109.553 21.4425C109.509 20.006 118.1 14.0471 114.98 8.72422C114.384 7.70638 114.286 7.33457 115.287 7.92594ZM113.859 10.5296C113.859 8.49214 115.583 9.49925 114.361 12.9632C114.011 13.9566 112.54 16.2657 112.367 16.0929C112.293 16.0192 112.379 15.6242 112.558 15.2148C113.202 13.7403 113.859 11.373 113.859 10.5296ZM109.605 7.98582C109.791 9.90621 109.763 10.4669 109.362 12.8219C107.971 20.9875 109.66 8.54085 108.751 5.93301C108.36 4.8106 109.205 3.87007 109.605 7.98582ZM109.88 4.83295C109.353 3.81719 109.944 3.57483 111.152 4.31129C112.56 5.16974 112.858 7.07896 112.895 8.58628C112.953 10.9451 112.308 13.0883 111.415 15.2348C110.764 16.8002 110.007 18.3546 109.123 19.8028C108.973 20.0486 108.552 20.9402 108.186 20.9402C107.809 20.9402 107.812 20.9289 108.52 19.3671C110.608 14.761 111.615 8.17813 109.88 4.83295ZM108.23 30.4836C108.409 31.3515 108.525 32.0781 108.487 32.0979C108.396 32.1453 107.215 32.9744 107.131 33.0332C106.77 30.778 106.862 21.5562 107.067 21.5562C107.279 21.5562 108.484 22.6999 108.767 22.9591L108.336 24.799C107.819 27.0001 107.793 28.3718 108.23 30.4836ZM108.507 17.346C108.422 17.5775 108.062 18.6808 107.859 18.6808C107.33 18.681 108.247 17.657 108.507 17.346ZM104.798 6.43188C105.12 3.6654 105.742 1.58429 106.22 1.6765C108.261 2.06975 108.394 18.6135 106.429 18.846C105.234 18.9877 105.902 17.2947 105.463 16.4598C105.363 16.2695 105.116 14.4179 104.915 12.3448C104.602 9.12402 104.585 8.26378 104.798 6.43188ZM104.875 22.3753C105.242 22.1516 105.595 21.9681 105.659 21.9676C105.723 21.9672 105.783 24.5544 105.792 27.7172C105.811 34.5443 105.811 34.0058 104.363 32.4648L104.699 30.7585C106.062 23.8253 102.938 23.5563 104.875 22.3753ZM105.164 19.3759C105.058 19.6604 104.201 17.7485 104.224 17.2776C104.245 16.8409 105.28 19.0647 105.164 19.3759ZM102.968 6.17522C103.673 1.29546 103.315 10.3296 103.782 13.4993C103.936 14.5461 104.005 15.4605 103.934 15.5309C103.721 15.7442 103.473 14.7544 103.075 12.109C102.735 9.83873 102.702 8.01636 102.968 6.17522ZM100.711 5.78822C101.449 4.36715 101.808 3.89435 102.147 3.89435C102.309 3.89435 102.349 4.02559 102.257 4.25379C100.873 7.66005 102.302 16.8135 104.358 19.8905C105.162 21.0925 104.877 21.9451 103.812 19.9794C102.897 18.2898 103.331 18.4709 102.769 17.9621C102.486 17.7054 102.431 17.4319 102.266 17.1161C102.016 16.6365 101.793 16.2069 101.633 15.6724C101.23 14.3188 100.742 12.962 100.412 11.5957C100.248 10.9179 100.111 9.59846 100.107 8.66344C100.101 7.16982 100.174 6.82051 100.711 5.78822ZM98.9923 9.09676C99.0426 10.7402 99.5824 12.3459 100.197 13.8773C100.472 14.5646 100.91 15.3277 101.037 16.0506C101.17 16.8005 100.372 15.9219 100.186 15.7031C99.1946 14.5342 98.8826 13.7795 98.5232 11.6791C97.832 7.63711 98.9147 6.56043 98.9923 9.09676ZM102.342 20.5293C101.867 19.8515 101.417 19.2971 101.343 19.2971C101.014 19.2971 97.8481 16.0253 97.4067 15.2288C97.1371 14.7422 96.7233 13.9902 96.4874 13.5581C95.6255 11.9794 95.9349 9.21519 97.1377 7.75255C97.3898 7.44614 97.6382 7.07643 97.6899 6.93104C97.7946 6.63804 98.2658 6.67275 97.6437 7.67986C96.9615 8.7835 97.3034 10.566 97.5177 11.7549C97.6396 12.4311 97.7884 13.1194 98.0278 13.765C98.7009 15.581 100.046 17.0076 101.292 18.4416C101.841 19.0736 102.395 19.7064 102.893 20.3797C103.149 20.7244 103.59 21.2245 103.591 21.6846C103.591 22.0442 103.06 21.5537 102.342 20.5293ZM103.408 27.6658C103.37 24.6286 104.559 26.1209 103.684 30.0791C103.059 32.9033 103.06 32.9435 103.773 33.4508C104.735 34.136 105.501 35.7264 106.033 35.7264C106.418 35.7264 107.082 35.123 107.082 34.7732C107.082 34.4549 108.136 33.5862 108.988 33.202C110.27 32.6237 109.814 31.9063 110.394 32.7855C110.971 33.6603 110.887 33.8781 109.971 33.8781C108.295 33.8781 107.127 34.7853 106.907 36.2573C106.196 41.0103 111.948 39.921 110.133 40.7232C109.058 41.1977 108.326 43.0189 107.981 41.9388C107.559 40.617 106.449 38.377 106.163 38.2669C105.505 38.0152 104.835 39.1554 105.131 38.0588C105.383 37.1254 105.251 36.1216 104.8 35.5426C104.345 34.9587 102.939 34.0832 102.456 34.0832C102.061 34.0832 102.073 33.6915 102.49 32.8542C103.009 31.8164 103.43 29.4312 103.408 27.6658ZM85.5196 18.49C86.5333 17.964 94.2588 17.28 97.4614 19.5302C97.7613 19.741 98.0879 19.9132 98.1871 19.9132C98.4115 19.9132 100.268 21.8514 100.843 22.6856C105.399 29.2954 98.4217 35.0174 100.94 37.6979C101.466 38.2577 102.381 38.3503 102.769 37.883C103.317 37.2224 101.537 37.5336 101.537 36.3348C101.537 35.8559 101.659 35.6699 102.078 35.5109C103.867 34.8307 105.014 37.0667 103.569 38.4166C102.892 39.0495 102.718 39.0795 101.45 38.7823C100.427 38.5422 100.159 38.3126 99.6569 37.2449C99.272 36.4262 99.2675 36.3255 99.5745 35.421C99.7531 34.8946 99.8467 34.3785 99.7819 34.2736C99.6332 34.033 98.5177 34.0236 98.3704 34.2618C98.2001 34.5371 93.0442 35.6904 91.6055 31.3337C91.2784 30.3433 91.2812 30.3163 91.8126 29.3405C92.5681 27.9522 93.6862 27.2527 95.1938 27.2251C96.1796 27.2071 96.4559 27.2859 96.9177 27.717C97.7108 28.4579 97.8755 28.8618 97.7207 29.6871C97.5283 30.7126 96.9262 31.2083 95.8735 31.2083C93.7005 31.2083 93.9403 29.4703 94.8573 29.2404C96.7092 28.7757 95.2054 27.0351 93.6105 28.8895C92.6884 29.9615 93.0759 31.6635 94.5117 32.8469C97.6767 35.4565 104.859 30.4307 99.8269 23.2165C99.0165 22.0549 98.4727 21.5191 97.5325 20.9566C94.6839 19.2524 90.4646 18.5134 87.4694 19.194C84.0032 19.9817 82.6922 19.7076 80.8867 20.7408C79.5602 21.4996 79.1391 21.3776 80.173 20.534C81.2464 19.6575 84.834 18.8469 85.5196 18.49ZM77.138 18.0401C77.1932 17.0734 77.2586 16.9271 77.663 16.8698C78.1484 16.8008 78.1907 16.9018 78.132 17.9928C78.0551 19.4246 78.9626 18.9381 79.1033 17.472C79.1976 16.4911 79.1501 16.355 78.3566 15.3261C77.8904 14.7221 77.509 14.0941 77.509 13.9306C77.509 13.5724 76.6875 11.9691 76.6875 11.9632C76.6875 11.9306 76.9576 11.9038 77.2878 11.9038C78.095 11.9038 79.0476 12.7425 79.5799 13.9223C79.9539 14.751 79.9989 15.1475 79.9091 16.8325C79.8099 18.6959 79.7619 18.8597 78.8406 20.4779C76.9002 23.8853 77.9196 21.2828 77.3684 19.8884C77.2023 19.4672 77.1022 18.6661 77.138 18.0401ZM70.1996 41.9236C70.8117 31.6083 76.31 23.6628 76.3888 23.8682C76.6139 24.4545 77.0254 24.2902 78.5608 23.0009C81.2704 20.7259 83.3106 20.1966 82.2154 22.0527C81.6513 23.0091 81.9876 23.1654 83.4063 22.6062C84.4681 22.1876 87.6487 21.6576 87.9564 21.848C88.2386 22.0224 87.9602 24.0915 87.5983 24.5093C85.832 26.5498 81.822 25.8149 81.822 27.1162C81.822 27.5952 82.0331 27.7288 82.4435 27.5089C82.6426 27.4022 83.3219 27.2545 83.9526 27.1803C84.9232 27.0663 85.1203 27.0996 85.2345 27.3969C85.3301 27.6462 85.1429 27.9375 84.5892 28.4001C83.3451 29.4399 83.0408 29.5504 81.4003 29.5583C79.4565 29.5674 78.216 30.1336 76.7674 31.6726C74.704 33.8647 73.4517 36.1374 74.307 36.1374C74.798 36.1374 76.2719 34.211 76.1469 33.7327C75.9451 32.9626 79.1665 30.7375 79.3268 31.219C79.5839 31.9899 76.483 33.2015 76.483 33.519C76.4818 33.7853 77.2975 33.6866 77.7955 33.3605C78.32 33.0167 78.9468 33.143 78.9468 33.5923C78.9468 33.7499 78.8629 33.8784 78.7607 33.8784C78.6585 33.8784 78.2832 34.5024 77.927 35.2646C77.2119 36.7955 76.6114 37.5184 75.3 38.4281C71.4924 41.0694 72.4431 43.5067 73.5711 41.5948C74.0837 40.7261 74.9183 40.1523 75.4005 40.3373C75.7016 40.453 75.6199 40.5914 74.8933 41.1947C69.4543 45.7125 75.661 56.1992 75.661 56.4045C75.661 57.2406 72.6266 53.3948 71.8073 48.3567C70.8231 42.3076 72.2041 30.1772 80.8779 25.6634C82.8851 24.6189 83.342 24.2226 82.872 23.9322C82.611 23.7708 79.9412 24.9088 78.9019 25.6243C72.5281 30.0138 70.1261 39.1011 70.7223 46.6112C70.8432 48.1361 70.9892 49.6146 71.0467 49.8971C71.2466 50.8809 69.8559 47.7182 70.1996 41.9236ZM71.6533 52.6181C71.2177 51.217 71.0335 50.9238 71.3259 50.9238C71.451 50.9238 71.5532 51.1099 71.5532 51.3375C71.5532 52.1404 72.3747 53.1143 72.3747 53.5911C72.3748 53.7964 72.1498 54.2156 71.6533 52.6181ZM14.3474 55.9548C14.439 55.1808 14.5979 54.4049 14.8188 53.6398C15.8589 50.0396 18.2735 46.6801 21.5049 44.8902C22.202 44.5041 24.7431 42.7606 27.1936 42.3192C35.7126 40.7839 38.8701 42.1278 44.2392 43.738C52.2002 46.1248 58.9335 50.5132 57.4355 50.5132C56.9239 50.5132 57.0468 50.2708 52.9672 48.1606C48.7692 45.9893 44.2266 44.2256 39.6268 43.1488C36.9259 42.5164 33.9965 41.906 31.2085 42.1881C29.0878 42.4026 27.0021 42.9332 25.0433 43.7748C23.2236 44.5567 20.9557 45.6462 19.6996 47.2261C18.9793 48.1332 15.5431 51.3396 15.2286 57.2887C15.1946 57.9318 15.0837 58.2294 14.8619 58.2713C14.6868 58.3045 14.479 58.2668 14.3998 58.1876C13.9981 57.7857 14.2906 56.4342 14.3474 55.9548ZM57.1775 52.2737C57.1775 53.2914 55.0526 51.1293 55.9176 51.1293C56.2443 51.1293 57.1775 51.977 57.1775 52.2737ZM6.05688 66.1124C5.88945 67.5306 5.56174 68.0143 4.82588 67.9286C4.41192 67.8805 4.27994 67.7368 4.22736 67.2772C4.12681 66.3991 4.60273 66.5166 4.60273 65.772C4.60273 64.3247 1.52195 66.5904 2.9606 68.95C3.18613 69.3197 3.37054 69.7126 3.37054 69.8228C3.37054 70.0623 2.81567 70.0635 2.22668 69.825C0.949949 69.3083 0.668118 66.6952 1.71158 65.0498C2.83667 63.276 4.96128 62.5367 6.26542 63.4653C7.54081 64.3736 6.31532 63.9191 6.05688 66.1124ZM23.46 62.2191C23.5523 62.2191 23.8352 62.4573 24.0881 62.7481C24.7239 63.4795 25.8165 63.8914 27.1195 63.8914C28.4655 63.8914 28.4792 64.0213 27.576 64.5356C26.9117 64.9137 24.8594 65.1817 24.3184 64.9609C23.5544 64.6493 23.2916 64.2021 23.2916 63.214C23.2916 62.6671 23.3673 62.2191 23.46 62.2191ZM29.0848 58.7031C27.5015 57.3135 29.587 57.9135 30.6998 58.9011C32.8422 60.8022 31.3125 65.5496 28.015 66.4868C25.9811 67.065 24.4774 66.3362 25.5713 66.3298C26.2723 66.3257 27.3663 65.9472 28.0473 65.4735C28.9518 64.844 29.8615 63.2858 29.8777 62.338C29.8858 61.8774 29.9634 61.3185 30.0502 61.0964C30.2957 60.4681 29.8575 59.3813 29.0848 58.7031ZM21.0354 62.3481C21.0398 61.3147 21.2561 60.7552 21.6237 60.8256C21.8837 60.8754 21.9868 61.2531 22.0945 62.5491C22.3376 65.4753 23.4789 67.0903 25.6461 67.5753C31.1796 68.8134 35.2293 61.4703 31.4749 57.9705C30.8351 57.3744 29.2856 56.6846 28.5731 56.6787C26.815 56.665 24.6126 58.6423 24.8724 60.0014C25.0622 60.994 26.1667 60.8849 26.1667 59.8735C26.1667 58.8467 27.4779 58.5827 28.3324 59.4375C28.8764 59.9815 29.0132 61.0948 28.6251 61.8199C27.9313 63.1165 24.8848 63.3313 24.3426 60.8042C23.0552 54.7996 33.699 54.0142 33.6548 62.4246C33.6184 69.2217 23.8642 70.627 20.3486 66.9581C18.8157 65.3585 18.3804 64.2399 18.2059 61.4526C18.0767 59.3901 18.0027 59.0308 17.6952 58.9721C17.4095 58.9173 17.3358 59.0475 17.3358 59.6065C17.3358 60.8827 16.3485 61.919 17.8516 65.2465C18.5351 66.759 20.4592 68.6257 21.8713 69.1464C22.4829 69.3716 23.122 69.6078 23.2915 69.6708C23.8781 69.8892 22.5774 69.7842 21.521 69.5278C20.1419 69.1931 18.7737 68.4686 15.8982 66.55C12.7599 64.4561 12.1854 64.2213 10.1652 64.2084C8.67156 64.1987 8.55984 64.1705 8.94461 63.9009C9.48429 63.5228 9.13081 63.2538 8.08868 63.2494C5.90017 63.2398 5.5738 60.5048 9.27917 61.5079C10.6128 61.8688 10.8595 61.8256 10.8639 61.2293C10.8707 60.3421 12.7197 61.6509 14.157 63.5602C15.0883 64.7973 15.8757 65.4878 16.3665 65.4976C17.037 65.5112 16.9892 64.8982 16.2308 63.7558C15.1486 62.1256 15.7185 62.2638 15.0767 61.2949C14.1501 59.896 15.0058 58.6833 15.5116 60.3707C15.6846 60.9478 15.8718 61.1922 16.1411 61.1922C16.9738 61.1922 15.9508 57.8814 17.1211 56.0609C17.2491 55.8619 17.682 55.7479 18.3636 55.7339C19.7921 55.7041 19.8896 55.9308 19.7336 58.9219C19.4118 65.0935 21.0304 63.454 21.0354 62.3481ZM36.2298 51.4622C36.2298 52.3187 36.0307 52.3376 35.4391 51.5377C32.8499 48.036 26.2214 49.7127 24.8819 50.8808C23.9535 51.6902 24.0711 50.2686 28.2801 48.8499C32.4814 47.434 36.2298 49.5711 36.2298 51.4622ZM43.8285 48.7931C38.7282 46.8214 32.4297 46.6225 29.8634 47.2892C26.059 48.2777 23.0624 50.2663 21.0605 53.1311C20.4458 54.0107 19.8946 53.8701 19.0186 54.2249C18.1875 54.5619 18.1202 53.8394 17.448 54.3311C17.0319 54.6355 16.4256 54.7302 16.5813 54.4664C17.285 53.2728 18.2062 47.7862 25.1401 44.8649C26.8531 44.1432 27.9882 43.3251 32.956 43.3251C36.6847 43.3251 37.4353 44.103 41.7945 44.8594C43.6356 45.1791 48.4715 47.2837 48.7576 47.4316C50.8813 48.5308 52.056 49.0754 52.3028 49.0754C52.7759 49.0754 55.9455 51.0993 53.4817 50.4424C51.7535 49.9805 52.2305 51.0356 50.5728 50.243C48.7986 49.3943 47.3003 50.135 43.8285 48.7931ZM68.2411 64.813C67.8602 64.6582 66.4775 64.4704 65.1685 64.3957C63.0165 64.2731 62.591 64.3111 60.7275 64.7911C56.7097 65.8264 53.248 67.8941 53.7747 65.7958C53.8955 65.315 54.1517 65.1507 55.791 64.5045C56.3377 64.2891 56.5893 63.6569 56.1284 63.6569C55.484 63.6569 52.9456 64.3877 52.8074 64.6129C52.7195 64.7562 52.1804 65.1081 51.6096 65.3948C49.9709 66.2178 47.5248 66.0666 47.5248 65.1422C47.5248 64.8821 46.5819 64.4784 45.9749 64.4784C45.3697 64.4784 45.3557 64.3622 45.8615 63.5328C46.3372 62.7526 47.2895 62.146 48.9989 61.5339C50.5748 60.9698 50.719 60.5212 49.3731 60.3697C48.4805 60.269 48.4655 60.2562 48.9343 59.9906C49.2012 59.8394 50.1973 59.6447 51.148 59.5581C52.9949 59.3897 53.1832 59.3197 53.0088 58.8655C52.8541 58.4627 49.0707 57.6157 44.2689 59.8878C38.9409 62.4083 48.0916 54.6694 59.7443 59.526C60.9537 60.0299 65.0079 62.0964 65.1093 62.2607C65.348 62.6468 64.9945 62.6425 63.4134 62.2402C62.2014 61.9317 57.53 61.1982 53.3779 62.1101C51.7221 62.4739 49.3733 63.5717 49.3733 63.9822C49.3733 64.3716 50.0659 64.3503 50.8667 63.9362C51.7894 63.4592 53.4189 63.115 56.1716 62.8157C59.765 62.4252 59.4815 62.8618 63.6464 63.3617C66.5851 63.7153 69.0886 64.3898 69.0886 64.8277C69.0889 65.1572 69.088 65.1572 68.2411 64.813ZM99.7131 67.7736C99.2181 68.0094 97.878 68.5084 96.7352 68.8823C92.3409 70.3193 90.7547 69.4428 89.0891 69.4191C87.0846 69.391 81.7973 67.7356 78.3122 66.0449C70.7443 62.3733 63.1054 54.7305 61.3952 46.5599C61.3128 46.1668 61.1495 45.9952 60.8576 45.9952C60.4752 45.9952 60.45 46.0813 60.574 46.9708C60.941 49.6084 61.5646 50.3177 61.9124 51.4889C62.0549 51.9689 62.2404 52.3616 62.3247 52.3616C62.6277 52.3616 63.5439 54.1935 63.5439 54.7992C63.5439 55.4692 63.9053 55.8543 64.1548 55.4504C64.2582 55.2831 64.4681 55.4617 64.7886 55.9889C66.5228 58.8424 71.5812 63.9019 77.3551 66.7316C77.7554 66.9278 79.4732 67.5456 79.523 68.0844C79.5137 67.9845 78.4701 67.6763 78.3214 67.6201C77.0843 67.153 75.8061 66.7536 74.6343 66.1328C73.1704 65.3577 71.7558 64.4903 70.325 63.6572C66.5615 61.4657 62.6895 59.3813 58.5186 58.0721C55.6257 57.1641 52.5738 56.6358 49.5365 56.8843C47.2105 57.0748 44.5641 57.8259 43.2996 58.6544C42.3528 59.2753 42.0924 58.4555 43.9304 57.554C45.3734 56.8463 45.3932 56.3671 43.9797 56.3649C42.6133 56.3628 42.709 56.0545 43.8205 55.4935C44.5349 55.1333 45.0864 55.0314 46.3242 55.0314C47.1973 55.0314 47.9638 54.9466 48.0282 54.8427C48.1889 54.5824 47.6166 54.0486 46.8202 53.7156C45.4492 53.1429 44.8081 51.6034 45.7281 51.0929C46.2759 50.7889 49.3464 50.8153 49.6581 51.1267C49.7726 51.2411 50.0372 51.3348 50.246 51.3348C50.7744 51.3348 51.7548 51.8581 52.9863 52.7967C53.5616 53.2353 54.1337 53.5939 54.2576 53.5939C55.3117 53.5939 53.4807 51.8884 53.4807 51.4984C53.4807 50.9666 54.6132 51.7903 56.4593 53.6647C59.5798 56.8326 60.4045 57.4465 61.0655 57.0927C61.7216 56.7418 61.5741 56.1547 60.588 55.1929C57.9213 52.5912 58.2514 50.0019 59.9314 52.6275C60.7287 53.8743 61.175 54.3021 61.4808 54.1129C61.8546 53.882 61.7153 53.3693 61.0128 52.3893C59.9644 50.9271 59.5424 49.199 59.5403 46.3657C59.5374 41.7438 60.2571 44.3486 61.022 44.0555C62.1223 43.6332 62.1741 43.664 63.1651 45.3206C64.7824 48.0238 64.8034 50.569 65.5538 52.0527C66.2595 53.4474 67.4553 54.522 67.4407 53.7481C67.438 53.6071 67.2666 52.8445 67.0594 52.0539C66.4692 49.7999 66.8097 48.4893 67.8046 49.1862C68.2221 49.4786 68.393 50.1518 68.662 52.5672C68.9267 54.9441 70.4527 58.4338 72.0337 60.2787C74.0907 62.6785 76.075 62.7813 74.3585 60.3987C73.5241 59.2409 73.0544 58.0766 72.8745 56.7212C72.6961 55.3767 73.0121 55.1838 73.9324 56.0758C76.1885 58.2623 76.2186 62.3017 80.1554 64.9706C82.5306 66.5802 82.8982 65.9573 83.694 65.162C78.4989 60.6898 78.3235 60.2943 78.3463 58.215L79.2444 59.1905C80.8847 60.9724 80.618 59.3879 81.7167 61.1416C82.0527 61.6783 82.3889 62.2606 82.4636 62.4362C82.7152 63.0255 85.7885 65.7371 86.7669 66.233C89.6623 67.7001 92.0007 68.1598 94.6704 67.7862C99.6715 67.0868 103.157 65.172 103.565 60.0552C103.732 57.9704 103.51 57.9419 103.297 56.88C103.175 56.2742 101.813 54.414 100.987 53.7259C100.313 53.1642 99.3894 52.8414 97.9275 52.6559C97.0559 52.5456 96.7197 52.6084 95.8738 53.04C92.5271 54.7461 93.5946 57.435 94.5896 58.1725C95.3332 58.7238 95.8719 58.5245 95.5497 57.8172C95.2611 57.1839 95.5991 56.6746 96.3083 56.6746C97.0979 56.6746 97.3994 56.8857 97.6366 57.6044C97.817 58.1508 97.8007 58.4144 97.5573 58.8847C97.155 59.6629 96.8952 59.8468 95.7692 60.1511C94.9178 60.3811 94.736 60.3621 93.8634 59.952C90.6835 58.4572 91.4787 53.2256 94.9654 52.1806C96.2919 51.7832 98.8397 51.866 99.9516 52.3427C107.399 55.5347 104.536 65.4745 99.7131 67.7736ZM109.136 67.8668C108.603 67.9839 108.52 68.094 108.52 68.6795C108.52 69.0521 108.404 69.448 108.263 69.5593C107.847 69.8879 104.257 70.4259 103.928 68.7842C103.754 67.916 102.975 68.1193 102.975 67.6477C102.975 67.1084 103.515 67.3441 104.182 68.1748C104.795 68.9375 104.917 68.9964 105.879 68.9964C107.044 68.9964 108.011 68.4589 108.324 67.6374C108.463 67.2708 108.665 67.1479 109.131 67.1479C109.953 67.1481 109.957 67.6866 109.136 67.8668ZM171.743 62.8406C172.359 62.0243 172.423 61.8174 172.325 60.9859C172.264 60.4713 172.185 59.9261 172.148 59.7743C171.973 59.0453 172.647 59.458 173.589 60.6566C174.716 62.0903 174.818 62.3496 174.934 64.0667C175.058 65.8883 174.517 66.7852 172.756 67.6818C169.373 69.4041 175.098 65.7785 173.29 63.9703C172.821 63.5017 172.595 63.6444 171.972 64.799C171.337 65.9781 170.841 66.1897 170.543 65.4079C170.32 64.8221 170.436 64.5749 171.743 62.8406ZM170.515 59.9684C171.098 60.7576 170.777 60.7377 169.453 59.9021C166.529 58.0572 163.836 58.2145 162.513 58.2145C159.572 58.2145 158.63 58.4406 158.63 59.1463C158.63 59.4597 158.865 59.4854 160.94 59.3989C165.442 59.2111 164.26 60.2423 163.944 60.047C163.571 59.8169 162.737 60.1596 162.737 60.5426C162.737 60.7893 163.129 61.0994 163.918 61.4781C165.683 62.3248 166.642 63.2918 166.956 64.5416C167.087 65.064 167.062 65.0866 166.484 64.971C165.15 64.7045 165.916 66.1223 164.007 66.1205C163.219 66.1199 162.857 65.9808 162.004 65.3504C157.664 62.143 155.382 63.711 158.384 64.7929C159.36 65.1443 160.194 65.9555 159.963 66.3286C159.804 66.5869 158.887 66.5682 158.219 66.2927C157.937 66.1763 156.966 65.7228 156.063 65.2852C153.874 64.2246 153.064 64.2438 151.668 63.8203C150.575 63.4889 146.63 63.9898 147.129 63.684C148.112 63.0816 158.419 61.647 162.672 63.7004C163.197 63.9541 163.835 63.7703 163.714 63.4004C163.572 62.9698 162.359 62.2592 161.13 61.8871C160.203 61.6063 159.145 61.5332 155.96 61.5292C152.285 61.5244 151.761 61.5706 149.594 62.091C148.295 62.4028 147.019 62.7441 146.76 62.8494C145.61 63.3162 144.887 62.8206 146.459 62.5379C149.295 62.0265 156.674 56.2673 164.091 57.3059C166.686 57.6689 169.755 58.9414 170.515 59.9684ZM170.178 58.3904C169.988 58.508 169.309 58.038 169.309 57.7891C169.309 57.4618 170.554 58.1581 170.178 58.3904ZM169.459 55.918C169.261 56.5191 167.295 55.9311 168.287 56.9878C168.819 57.554 168.528 57.6664 167.787 57.1807C166.685 56.4586 163.437 55.8322 162.018 56.0683C160.461 56.3276 159.063 56.1833 158.383 56.4456C157.396 56.8261 153.392 57.6558 146.792 61.6248C136.471 67.8342 133.456 67.9475 131.377 69.0567C130.659 69.44 130.289 69.5013 130.289 69.2369C130.289 69.0656 130.959 68.7394 133.761 67.5471C144.488 62.9817 151.679 52.6478 151.917 46.8166C151.967 45.6008 151.443 45.5349 151.101 46.714C149.629 51.7892 147.881 54.557 147.669 54.7234C147.669 54.7234 144.827 58.6645 142.412 60.8414C139.897 63.1087 136.81 65.2189 133.713 66.5948C131.47 67.5911 129.094 67.9678 126.795 68.7677C125.385 69.2584 124.098 69.3063 122.587 69.3282C119.726 69.3695 118.171 69.2042 116.221 68.6511C114.898 68.2758 113.718 67.4284 112.486 66.8448C108.22 64.8253 107.396 59.2547 109.413 55.3393C109.936 54.3256 111.206 53.2463 112.691 52.5533C113.987 51.9481 114.211 51.9074 115.771 51.9937C118.642 52.1522 120.072 53.216 120.94 55.8371C121.255 56.7875 121.271 57.0589 121.051 57.6854C120.354 59.667 118.427 60.3923 116.275 59.4835C115.533 59.1705 114.776 57.7548 114.96 57.0248C115.197 56.0799 115.896 55.597 116.817 55.7418C117.258 55.8111 117.697 55.9162 117.793 55.9751C118.102 56.1663 117.977 56.8064 117.556 57.1876C117.049 57.6461 117.022 58.2603 117.504 58.3659C119.129 58.722 121.443 56.4219 119.06 53.9608C117.924 52.7869 117.287 52.5161 115.7 52.5308C113.141 52.5551 110.253 54.4094 109.516 56.5021C108.262 60.0625 110.162 62.5884 110.162 63.1256C110.162 63.4513 111.735 65.026 112.774 65.7407C114.836 67.1595 117.874 67.7231 120.324 67.5471C120.575 67.5291 120.826 67.5033 121.077 67.4777C121.989 67.3843 122.92 67.3834 123.781 67.0521C125.892 66.2402 127.561 65.3942 129.156 63.778C131.82 61.0777 131.89 59.736 132.596 59.8123C132.887 59.8438 133.201 59.5702 133.652 58.892C134.221 58.035 134.892 57.5125 135.124 57.745C135.169 57.79 135.109 58.1804 134.989 58.6128C134.314 61.0559 128.39 64.5959 129.985 65.9194C130.52 66.3639 131.868 65.5669 133.916 63.5945C138.233 59.4378 136.461 57.3859 138.976 55.3649C139.596 54.8664 139.827 54.7829 140.105 54.9577C141.481 55.8243 139.015 59.4345 137.992 60.576C136.337 62.4231 138.353 64.8861 143.278 56.2634C143.827 55.3019 144.161 54.1189 144.232 52.8852C144.372 50.4359 145.859 49.0279 146.133 49.1976C146.4 49.3625 146.323 51.3433 146.016 52.2031C145.802 52.8039 145.796 53.0421 145.99 53.3072C146.848 54.481 148.412 48.6933 148.799 47.4127C149.159 46.2196 150.876 43.8496 151.439 43.7683C152.618 43.5971 153.383 41.7286 153.35 46.4056C153.332 49.0403 153.026 50.1536 151.729 52.3065C151.021 53.4827 150.92 54.0022 151.372 54.1524C151.592 54.2257 152.25 53.5942 153.558 52.0533C154.971 50.3898 154.06 53.8776 151.944 55.823C150.674 56.9916 150.526 57.3342 151.025 57.9477C151.376 58.3793 151.372 58.9823 154.571 55.7705C158.001 52.326 160.493 51.7752 159.194 52.8384C158.057 53.7691 158.711 54.6806 160.547 53.2787C166.271 48.9081 169.917 52.7504 165.993 53.807C165.241 54.0094 164.784 54.4765 165.063 54.7564C165.364 55.057 169.754 55.0231 169.459 55.918ZM132.364 63.5157C132.509 63.1227 134.014 61.5633 134.133 61.6818C134.287 61.8357 132.261 63.7932 132.364 63.5157ZM166.742 50.004C162.304 50.0742 163.059 51.0161 161.047 50.9694C159.193 50.9276 156.622 52.6655 155.097 53.6327C155.723 50.7309 155.139 51.5681 165.175 46.8678C168.042 45.5257 182.341 41.736 190.164 46.4215C191.464 47.2006 193.874 49.5192 194.078 50.1872C194.15 50.423 194.515 51.0467 194.889 51.573C196.64 54.0367 197.189 56.8749 195.622 55.199C194.382 53.8716 194.669 55.5839 193.477 54.6962C193.018 54.3544 191.993 53.0081 191.363 51.919C190.361 50.1871 185.267 46.4218 178.037 47.2097C171.907 47.8781 171.08 49.9358 166.742 50.004ZM191.36 54.4828C190.255 52.5874 188.019 50.7175 185.944 49.9519C184.619 49.4628 184.113 49.3858 182.316 49.3994C180.317 49.4146 180.178 49.4451 179.055 50.1181C178.409 50.5048 177.685 51.1203 177.446 51.486C176.808 52.4608 176.415 52.3711 176.558 51.2831C177.11 47.0816 186.304 47.7316 190.31 51.8273C192.031 53.5872 192.516 54.3084 192.516 55.1083C192.516 56.0504 192.163 55.8598 191.36 54.4828ZM184.8 65.6717C185.538 66.1777 187.286 66.5679 188.018 66.3903C188.421 66.2926 188.464 66.3204 188.256 66.5434C188.093 66.7174 187.35 66.8418 186.202 66.8874C184.545 66.9531 184.323 66.9135 183.384 66.3858C181.044 65.0704 181.199 63.3961 181.196 62.6429C181.192 61.229 181.24 61.0644 181.973 60.0008C182.904 58.6489 183.217 58.317 183.562 58.317C183.888 58.317 183.672 60.0399 183.176 61.3975C182.991 61.9057 182.886 62.5646 182.943 62.8613C183.107 63.7016 184.084 65.1814 184.8 65.6717ZM203.808 62.8352C203.21 62.8352 202.579 63.2012 202.579 63.5474C202.579 63.8511 202.823 63.9514 204.074 64.1626C204.724 64.2723 205.753 64.7446 202.31 64.5621C200.045 64.4422 199.994 64.4495 198.779 65.0656C194.945 67.0125 193.947 68.8757 190.77 69.4181C193.157 68.2066 194.815 66.0105 195.339 64.8142C195.726 63.9305 195.678 60.8931 195.272 60.4864C194.724 59.9386 194.569 60.3205 194.569 62.2251C194.569 70.306 181.334 71.9797 179.148 63.8879C178.762 62.4585 178.827 62.0735 179.86 59.6727C181.227 56.4943 186.802 55.5714 188.191 58.2935C188.754 59.397 188.725 59.8297 188.035 60.601C187.561 61.131 187.302 61.2482 186.601 61.2482C185.551 61.2482 185.196 60.9727 184.878 59.9109C184.658 59.1758 184.673 59.0588 185.02 58.8047C185.437 58.4995 186.058 58.6069 186.514 59.0628C187.304 59.8534 187.882 58.7751 186.75 57.8217C185.117 56.448 180.388 57.5637 179.885 62.254C179.755 63.4704 179.791 63.6462 180.399 64.7534C183.166 69.7951 190.66 69.497 190.666 63.2079C190.667 62.0326 190.932 60.9855 191.227 60.9883C191.527 60.9914 191.9 62.0951 191.9 62.9787C191.9 63.7862 191.944 63.8617 192.418 63.8617C194.197 63.8617 192.507 59.9988 193.139 57.3626C193.397 56.2877 193.441 56.2326 193.96 56.3364C194.781 56.501 194.741 55.9789 195.207 56.1577C195.57 56.2971 196.212 58.0437 196.212 58.8924C196.212 60.7208 197.274 60.1802 197.385 59.7543C197.549 59.1296 198.061 59.2471 198.058 59.9083C198.054 60.5804 197.546 62.1068 197.127 62.7051C196.395 63.751 197.109 66.1903 198.611 63.8427C200.487 60.9093 202.715 60.1711 203.092 60.7812C203.162 60.8942 203.589 60.9867 204.042 60.9867C206.784 60.987 205.174 62.8352 203.808 62.8352ZM211.393 69.1263C210.723 70.2111 210.537 69.9997 210.691 68.3289C210.824 66.8869 210.809 66.812 210.185 65.9546C209.661 65.2341 209.437 65.081 208.986 65.1331C208.389 65.2021 208.383 65.2332 208.656 67.095C208.807 68.1319 208.425 68.4199 207.609 67.8847C207.161 67.5917 207.097 67.4007 207.097 66.3677C207.097 65.2582 206.779 64.4272 206.206 64.0369C206.098 63.9636 206.072 63.7432 206.147 63.5471C206.262 63.2462 206.455 63.2108 207.38 63.3194C208.891 63.4971 209.715 63.8817 210.85 64.9381C211.809 65.8314 211.82 65.857 211.82 67.1382C211.82 68.0931 211.708 68.617 211.393 69.1263Z" fill="#F8F8F8"/>
</svg>
